0
SECTION
2
HEADER
9
$INSUNITS
70
4
9
$ACADVER
1
AC1014
9
$HANDSEED
5
FFFF
0
ENDSEC
0
SECTION
2
TABLES
0
TABLE
2
VPORT
5
8
100
AcDbSymbolTable
0
ENDTAB
0
TABLE
2
LTYPE
5
5
100
AcDbSymbolTable
0
LTYPE
5
14
100
AcDbSymbolTableRecord
100
AcDbLinetypeTableRecord
2
BYBLOCK
70
0
0
LTYPE
5
15
100
AcDbSymbolTableRecord
100
AcDbLinetypeTableRecord
2
BYLAYER
70
0
0
ENDTAB
0
TABLE
2
LAYER
5
2
100
AcDbSymbolTable
70
2
0
LAYER
5
50
100
AcDbSymbolTableRecord
100
AcDbLayerTableRecord
2
0
70
0
6
CONTINUOUS
0
ENDTAB
0
TABLE
2
STYLE
5
3
100
AcDbSymbolTable
70
1
0
STYLE
5
11
100
AcDbSymbolTableRecord
100
AcDbTextStyleTableRecord
2
STANDARD
70
0
0
ENDTAB
0
TABLE
2
VIEW
5
6
100
AcDbSymbolTable
70
0
0
ENDTAB
0
TABLE
2
UCS
5
7
100
AcDbSymbolTable
70
0
0
ENDTAB
0
TABLE
2
APPID
5
9
100
AcDbSymbolTable
70
2
0
APPID
5
12
100
AcDbSymbolTableRecord
100
AcDbRegAppTableRecord
2
ACAD
70
0
0
ENDTAB
0
TABLE
2
DIMSTYLE
5
A
100
AcDbSymbolTable
70
1
0
ENDTAB
0
TABLE
2
BLOCK_RECORD
5
1
100
AcDbSymbolTable
70
1
0
BLOCK_RECORD
5
1F
100
AcDbSymbolTableRecord
100
AcDbBlockTableRecord
2
*MODEL_SPACE
0
BLOCK_RECORD
5
1B
100
AcDbSymbolTableRecord
100
AcDbBlockTableRecord
2
*PAPER_SPACE
0
ENDTAB
0
ENDSEC
0
SECTION
2
BLOCKS
0
BLOCK
5
20
100
AcDbEntity
100
AcDbBlockBegin
2
*MODEL_SPACE
0
ENDBLK
5
21
100
AcDbEntity
100
AcDbBlockEnd
0
BLOCK
5
1C
100
AcDbEntity
100
AcDbBlockBegin
2
*PAPER_SPACE
0
ENDBLK
5
1D
100
AcDbEntity
100
AcDbBlockEnd
0
ENDSEC
0
SECTION
2
ENTITIES
0
LWPOLYLINE
5
100
100
AcDbEntity
8
0
100
AcDbPolyline
90
4
70
1
43
0.0
10
57.008500000000019
20
-47.869999999999997
10
71.008499999999998
20
-47.869999999999997
10
71.008499999999998
20
-33.869999999999997
10
57.008500000000019
20
-33.869999999999997
0
LWPOLYLINE
5
101
100
AcDbEntity
8
0
100
AcDbPolyline
90
4
70
1
43
0.0
10
39.008499999999998
20
-47.869999999999997
10
53.008500000000005
20
-47.869999999999997
10
53.008500000000005
20
-33.869999999999997
10
39.008499999999998
20
-33.869999999999997
0
LWPOLYLINE
5
102
100
AcDbEntity
8
0
100
AcDbPolyline
90
4
70
1
43
0.0
10
21.008500000000005
20
-33.869999999999997
10
21.008500000000005
20
-47.869999999999997
10
35.008500000000005
20
-47.869999999999997
10
35.008500000000005
20
-33.869999999999997
0
LWPOLYLINE
5
103
100
AcDbEntity
8
0
100
AcDbPolyline
90
4
70
1
43
0.0
10
75.008500000000012
20
-47.869999999999997
10
89.008499999999998
20
-47.869999999999997
10
89.008499999999998
20
-33.869999999999997
10
75.008500000000012
20
-33.869999999999997
0
LWPOLYLINE
5
104
100
AcDbEntity
8
0
100
AcDbPolyline
90
4
70
1
43
0.0
10
93.008499999999998
20
-33.869999999999997
10
93.008499999999998
20
-47.869999999999997
10
107.00800000000001
20
-47.869999999999997
10
107.00800000000001
20
-33.869999999999997
0
LWPOLYLINE
5
105
100
AcDbEntity
8
0
100
AcDbPolyline
90
4
70
1
43
0.0
10
111.01500000000001
20
-33.869999999999997
10
111.01500000000001
20
-47.869999999999997
10
125.015
20
-47.869999999999997
10
125.015
20
-33.869999999999997
0
LWPOLYLINE
5
106
100
AcDbEntity
8
0
100
AcDbPolyline
90
4
70
1
43
0.0
10
143.01499999999999
20
-47.870000000000019
10
129.01499999999999
20
-47.870000000000019
10
129.01499999999999
20
-33.870000000000005
10
143.01499999999999
20
-33.870000000000005
0
LWPOLYLINE
5
107
100
AcDbEntity
8
0
100
AcDbPolyline
90
4
70
1
43
0.0
10
160.99000000000004
20
-47.869999999999997
10
160.99000000000004
20
-33.869999999999997
10
146.99000000000001
20
-33.869999999999997
10
146.99000000000001
20
-47.869999999999997
0
LWPOLYLINE
5
108
100
AcDbEntity
8
0
100
AcDbPolyline
90
4
70
1
43
0.0
10
178.98500000000001
20
-47.862500000000018
10
178.98500000000001
20
-33.862499999999997
10
164.98500000000004
20
-33.862499999999997
10
164.98500000000004
20
-47.862500000000018
0
LWPOLYLINE
5
109
100
AcDbEntity
8
0
100
AcDbPolyline
90
4
70
1
43
0.0
10
196.99000000000001
20
-33.869999999999997
10
182.99000000000004
20
-33.869999999999997
10
182.99000000000004
20
-47.869999999999997
10
196.99000000000001
20
-47.869999999999997
0
LWPOLYLINE
5
110
100
AcDbEntity
8
0
100
AcDbPolyline
90
4
70
1
43
0.0
10
214.99000000000001
20
-47.869999999999997
10
214.99000000000001
20
-33.869999999999997
10
200.99000000000004
20
-33.869999999999997
10
200.99000000000004
20
-47.869999999999997
0
LWPOLYLINE
5
111
100
AcDbEntity
8
0
100
AcDbPolyline
90
4
70
1
43
0.0
10
218.99000000000001
20
-47.869999999999997
10
232.99000000000007
20
-47.869999999999997
10
232.99000000000007
20
-33.869999999999997
10
218.99000000000001
20
-33.869999999999997
0
LWPOLYLINE
5
112
100
AcDbEntity
8
0
100
AcDbPolyline
90
4
70
1
43
0.0
10
250.99000000000004
20
-47.869999999999997
10
250.99000000000004
20
-33.869999999999997
10
236.99000000000001
20
-33.869999999999997
10
236.99000000000001
20
-47.869999999999997
0
LWPOLYLINE
5
113
100
AcDbEntity
8
0
100
AcDbPolyline
90
4
70
1
43
0.0
10
271.24000000000001
20
-47.869999999999997
10
271.24000000000001
20
-33.869999999999997
10
257.24000000000001
20
-33.869999999999997
10
257.24000000000001
20
-47.869999999999997
0
LWPOLYLINE
5
114
100
AcDbEntity
8
0
100
AcDbPolyline
90
4
70
1
43
0.0
10
43.508500000000012
20
-64.870000000000005
10
43.508500000000012
20
-50.870000000000019
10
57.508499999999998
20
-50.870000000000019
10
57.508499999999998
20
-64.870000000000005
0
LWPOLYLINE
5
115
100
AcDbEntity
8
0
100
AcDbPolyline
90
4
70
1
43
0.0
10
62.008499999999998
20
-67.870000000000005
10
62.008499999999998
20
-81.869999999999976
10
48.008500000000012
20
-81.869999999999976
10
48.008500000000012
20
-67.870000000000005
0
LWPOLYLINE
5
116
100
AcDbEntity
8
0
100
AcDbPolyline
90
4
70
1
43
0.0
10
75.508499999999998
20
-50.870000000000019
10
75.508499999999998
20
-64.870000000000005
10
61.508499999999998
20
-64.870000000000005
10
61.508499999999998
20
-50.870000000000019
0
LWPOLYLINE
5
117
100
AcDbEntity
8
0
100
AcDbPolyline
90
4
70
1
43
0.0
10
93.508499999999998
20
-50.870000000000019
10
93.508499999999998
20
-64.870000000000005
10
79.508500000000012
20
-64.870000000000005
10
79.508500000000012
20
-50.870000000000019
0
LWPOLYLINE
5
118
100
AcDbEntity
8
0
100
AcDbPolyline
90
4
70
1
43
0.0
10
111.5085
20
-50.870000000000019
10
111.5085
20
-64.870000000000005
10
97.508499999999998
20
-64.870000000000005
10
97.508499999999998
20
-50.870000000000019
0
LWPOLYLINE
5
119
100
AcDbEntity
8
0
100
AcDbPolyline
90
4
70
1
43
0.0
10
129.5085
20
-50.870000000000019
10
129.5085
20
-64.870000000000005
10
115.5085
20
-64.870000000000005
10
115.5085
20
-50.870000000000019
0
LWPOLYLINE
5
120
100
AcDbEntity
8
0
100
AcDbPolyline
90
4
70
1
43
0.0
10
133.50850000000003
20
-50.870000000000019
10
147.5085
20
-50.870000000000019
10
147.5085
20
-64.870000000000005
10
133.50850000000003
20
-64.870000000000005
0
LWPOLYLINE
5
121
100
AcDbEntity
8
0
100
AcDbPolyline
90
4
70
1
43
0.0
10
151.50850000000003
20
-50.870000000000019
10
165.5085
20
-50.870000000000019
10
165.5085
20
-64.870000000000005
10
151.50850000000003
20
-64.870000000000005
0
LWPOLYLINE
5
122
100
AcDbEntity
8
0
100
AcDbPolyline
90
4
70
1
43
0.0
10
169.5085
20
-50.870000000000019
10
183.50850000000005
20
-50.870000000000019
10
183.50850000000005
20
-64.870000000000005
10
169.5085
20
-64.870000000000005
0
LWPOLYLINE
5
123
100
AcDbEntity
8
0
100
AcDbPolyline
90
4
70
1
43
0.0
10
201.50850000000003
20
-64.870000000000005
10
187.5085
20
-64.870000000000005
10
187.5085
20
-50.870000000000019
10
201.50850000000003
20
-50.870000000000019
0
LWPOLYLINE
5
124
100
AcDbEntity
8
0
100
AcDbPolyline
90
4
70
1
43
0.0
10
205.5085
20
-64.870000000000005
10
205.5085
20
-50.870000000000019
10
219.50850000000003
20
-50.870000000000019
10
219.50850000000003
20
-64.870000000000005
0
LWPOLYLINE
5
125
100
AcDbEntity
8
0
100
AcDbPolyline
90
4
70
1
43
0.0
10
223.50850000000005
20
-50.870000000000019
10
237.5085
20
-50.870000000000019
10
237.5085
20
-64.870000000000005
10
223.50850000000005
20
-64.870000000000005
0
LWPOLYLINE
5
126
100
AcDbEntity
8
0
100
AcDbPolyline
90
4
70
1
43
0.0
10
255.5085
20
-50.870000000000019
10
255.5085
20
-64.870000000000005
10
241.50850000000005
20
-64.870000000000005
10
241.50850000000005
20
-50.870000000000019
0
LWPOLYLINE
5
127
100
AcDbEntity
8
0
100
AcDbPolyline
90
4
70
1
43
0.0
10
273.50850000000003
20
-50.870000000000019
10
273.50850000000003
20
-64.870000000000005
10
259.50850000000003
20
-64.870000000000005
10
259.50850000000003
20
-50.870000000000019
0
LWPOLYLINE
5
128
100
AcDbEntity
8
0
100
AcDbPolyline
90
4
70
1
43
0.0
10
37.258499999999998
20
-50.870000000000019
10
37.258499999999998
20
-64.870000000000005
10
23.258499999999994
20
-64.870000000000005
10
23.258499999999994
20
-50.870000000000019
0
LWPOLYLINE
5
129
100
AcDbEntity
8
0
100
AcDbPolyline
90
4
70
1
43
0.0
10
66.008499999999998
20
-81.869999999999976
10
66.008499999999998
20
-67.870000000000005
10
80.008499999999998
20
-67.870000000000005
10
80.008499999999998
20
-81.869999999999976
0
LWPOLYLINE
5
130
100
AcDbEntity
8
0
100
AcDbPolyline
90
4
70
1
43
0.0
10
84.008499999999998
20
-81.869999999999976
10
84.008499999999998
20
-67.870000000000005
10
98.008499999999998
20
-67.870000000000005
10
98.008499999999998
20
-81.869999999999976
0
LWPOLYLINE
5
131
100
AcDbEntity
8
0
100
AcDbPolyline
90
4
70
1
43
0.0
10
102.00850000000001
20
-81.869999999999976
10
102.00850000000001
20
-67.870000000000005
10
116.00850000000001
20
-67.870000000000005
10
116.00850000000001
20
-81.869999999999976
0
LWPOLYLINE
5
132
100
AcDbEntity
8
0
100
AcDbPolyline
90
4
70
1
43
0.0
10
134.0085
20
-81.869999999999976
10
120.0085
20
-81.869999999999976
10
120.0085
20
-67.870000000000005
10
134.0085
20
-67.870000000000005
0
LWPOLYLINE
5
133
100
AcDbEntity
8
0
100
AcDbPolyline
90
4
70
1
43
0.0
10
138.0085
20
-81.869999999999976
10
138.0085
20
-67.870000000000005
10
152.0085
20
-67.870000000000005
10
152.0085
20
-81.869999999999976
0
LWPOLYLINE
5
134
100
AcDbEntity
8
0
100
AcDbPolyline
90
4
70
1
43
0.0
10
156.00850000000003
20
-67.870000000000005
10
170.0085
20
-67.870000000000005
10
170.0085
20
-81.869999999999976
10
156.00850000000003
20
-81.869999999999976
0
LWPOLYLINE
5
135
100
AcDbEntity
8
0
100
AcDbPolyline
90
4
70
1
43
0.0
10
174.00849999999997
20
-67.870000000000005
10
188.0085
20
-67.870000000000005
10
188.0085
20
-81.869999999999976
10
174.00849999999997
20
-81.869999999999976
0
LWPOLYLINE
5
136
100
AcDbEntity
8
0
100
AcDbPolyline
90
4
70
1
43
0.0
10
192.00850000000003
20
-81.869999999999976
10
192.00850000000003
20
-67.870000000000005
10
206.00850000000005
20
-67.870000000000005
10
206.00850000000005
20
-81.869999999999976
0
LWPOLYLINE
5
137
100
AcDbEntity
8
0
100
AcDbPolyline
90
4
70
1
43
0.0
10
224.00850000000003
20
-81.869999999999976
10
210.0085
20
-81.869999999999976
10
210.0085
20
-67.870000000000005
10
224.00850000000003
20
-67.870000000000005
0
LWPOLYLINE
5
138
100
AcDbEntity
8
0
100
AcDbPolyline
90
4
70
1
43
0.0
10
228.0085
20
-67.870000000000005
10
242.00850000000003
20
-67.870000000000005
10
242.00850000000003
20
-81.869999999999976
10
228.0085
20
-81.869999999999976
0
LWPOLYLINE
5
139
100
AcDbEntity
8
0
100
AcDbPolyline
90
4
70
1
43
0.0
10
75.508499999999998
20
-84.870000000000005
10
75.508499999999998
20
-98.870000000000005
10
61.508499999999998
20
-98.870000000000005
10
61.508499999999998
20
-84.870000000000005
0
LWPOLYLINE
5
140
100
AcDbEntity
8
0
100
AcDbPolyline
90
4
70
1
43
0.0
10
93.508499999999998
20
-98.870000000000005
10
79.508499999999998
20
-98.870000000000005
10
79.508499999999998
20
-84.870000000000005
10
93.508499999999998
20
-84.870000000000005
0
LWPOLYLINE
5
141
100
AcDbEntity
8
0
100
AcDbPolyline
90
4
70
1
43
0.0
10
97.508499999999998
20
-98.870000000000005
10
97.508499999999998
20
-84.870000000000005
10
111.5085
20
-84.870000000000005
10
111.5085
20
-98.870000000000005
0
LWPOLYLINE
5
142
100
AcDbEntity
8
0
100
AcDbPolyline
90
4
70
1
43
0.0
10
129.5085
20
-98.870000000000005
10
115.5085
20
-98.870000000000005
10
115.5085
20
-84.870000000000005
10
129.5085
20
-84.870000000000005
0
LWPOLYLINE
5
143
100
AcDbEntity
8
0
100
AcDbPolyline
90
4
70
1
43
0.0
10
147.5085
20
-98.870000000000005
10
133.50850000000003
20
-98.870000000000005
10
133.50850000000003
20
-84.870000000000005
10
147.5085
20
-84.870000000000005
0
LWPOLYLINE
5
144
100
AcDbEntity
8
0
100
AcDbPolyline
90
4
70
1
43
0.0
10
165.5085
20
-98.870000000000005
10
151.5085
20
-98.870000000000005
10
151.5085
20
-84.870000000000005
10
165.5085
20
-84.870000000000005
0
LWPOLYLINE
5
145
100
AcDbEntity
8
0
100
AcDbPolyline
90
4
70
1
43
0.0
10
169.50850000000003
20
-98.870000000000005
10
169.50850000000003
20
-84.870000000000005
10
183.50850000000005
20
-84.870000000000005
10
183.50850000000005
20
-98.870000000000005
0
LWPOLYLINE
5
146
100
AcDbEntity
8
0
100
AcDbPolyline
90
4
70
1
43
0.0
10
187.5085
20
-84.870000000000005
10
201.50850000000003
20
-84.870000000000005
10
201.50850000000003
20
-98.870000000000005
10
187.5085
20
-98.870000000000005
0
LWPOLYLINE
5
147
100
AcDbEntity
8
0
100
AcDbPolyline
90
4
70
1
43
0.0
10
219.50850000000003
20
-84.870000000000005
10
219.50850000000003
20
-98.870000000000005
10
205.5085
20
-98.870000000000005
10
205.5085
20
-84.870000000000005
0
LWPOLYLINE
5
148
100
AcDbEntity
8
0
100
AcDbPolyline
90
4
70
1
43
0.0
10
237.5085
20
-84.870000000000005
10
237.5085
20
-98.870000000000005
10
223.50850000000005
20
-98.870000000000005
10
223.50850000000005
20
-84.870000000000005
0
LWPOLYLINE
5
149
100
AcDbEntity
8
0
100
AcDbPolyline
90
4
70
1
43
0.0
10
241.50850000000003
20
-84.870000000000005
10
255.5085
20
-84.870000000000005
10
255.5085
20
-98.870000000000005
10
241.50850000000003
20
-98.870000000000005
0
LWPOLYLINE
5
150
100
AcDbEntity
8
0
100
AcDbPolyline
90
4
70
1
43
0.0
10
273.50850000000003
20
-98.870000000000005
10
259.50850000000003
20
-98.870000000000005
10
259.50850000000003
20
-84.870000000000005
10
273.50850000000003
20
-84.870000000000005
0
LWPOLYLINE
5
151
100
AcDbEntity
8
0
100
AcDbPolyline
90
4
70
1
43
0.0
10
219.55800000000008
20
-115.87000000000003
10
205.55800000000002
20
-115.87000000000003
10
205.55800000000002
20
-101.87
10
219.55800000000008
20
-101.87
0
LWPOLYLINE
5
152
100
AcDbEntity
8
0
100
AcDbPolyline
90
4
70
1
43
0.0
10
237.55800000000008
20
-101.87
10
237.55800000000008
20
-115.87000000000003
10
223.55800000000002
20
-115.87000000000003
10
223.55800000000002
20
-101.87
0
LWPOLYLINE
5
153
100
AcDbEntity
8
0
100
AcDbPolyline
90
4
70
1
43
0.0
10
255.55800000000005
20
-115.87000000000003
10
241.55799999999999
20
-115.87000000000003
10
241.55799999999999
20
-101.87
10
255.55800000000005
20
-101.87
0
LWPOLYLINE
5
154
100
AcDbEntity
8
0
100
AcDbPolyline
90
4
70
1
43
0.0
10
273.55799999999999
20
-101.87
10
273.55799999999999
20
-115.87000000000003
10
259.55800000000005
20
-115.87000000000003
10
259.55800000000005
20
-101.87
0
LWPOLYLINE
5
155
100
AcDbEntity
8
0
100
AcDbPolyline
90
4
70
1
43
0.0
10
266.78300000000002
20
-67.870000000000005
10
266.78300000000002
20
-81.869999999999976
10
252.78300000000002
20
-81.869999999999976
10
252.78300000000002
20
-67.870000000000005
0
LWPOLYLINE
5
156
100
AcDbEntity
8
0
100
AcDbPolyline
90
4
70
1
43
0.0
10
35.008500000000005
20
-101.87
10
21.008500000000005
20
-101.87
10
21.008500000000005
20
-115.87000000000002
10
35.008500000000005
20
-115.87000000000002
0
LWPOLYLINE
5
157
100
AcDbEntity
8
0
100
AcDbPolyline
90
4
70
1
43
0.0
10
39.008499999999998
20
-115.87000000000002
10
53.008500000000012
20
-115.87000000000002
10
53.008500000000012
20
-101.87
10
39.008499999999998
20
-101.87
0
LWPOLYLINE
5
158
100
AcDbEntity
8
0
100
AcDbPolyline
90
4
70
1
43
0.0
10
71.008499999999998
20
-101.87
10
57.008499999999998
20
-101.87
10
57.008499999999998
20
-115.87000000000002
10
71.008499999999998
20
-115.87000000000002
0
LWPOLYLINE
5
159
100
AcDbEntity
8
0
100
AcDbPolyline
90
4
70
1
43
0.0
10
199.30800000000002
20
-101.89500000000001
10
199.30800000000002
20
-115.89500000000001
10
185.30799999999999
20
-115.89500000000001
10
185.30799999999999
20
-101.89500000000001
0
LWPOLYLINE
5
160
100
AcDbEntity
8
0
100
AcDbPolyline
90
4
70
1
43
0.0
10
131.30799999999999
20
-101.87
10
145.30800000000005
20
-101.87
10
145.30800000000005
20
-115.87000000000003
10
131.30799999999999
20
-115.87000000000003
0
LWPOLYLINE
5
161
100
AcDbEntity
8
0
100
AcDbPolyline
90
4
70
1
43
0.0
10
77.258500000000012
20
-115.87000000000002
10
91.258499999999998
20
-115.87000000000002
10
91.258499999999998
20
-101.87
10
77.258500000000012
20
-101.87
0
LWPOLYLINE
5
162
100
AcDbEntity
8
0
100
AcDbPolyline
90
4
70
1
43
0.0
10
46.258499999999998
20
-84.870000000000005
10
46.258499999999998
20
-98.870000000000005
10
32.258499999999998
20
-98.870000000000005
10
32.258499999999998
20
-84.870000000000005
0
LWPOLYLINE
5
163
100
AcDbEntity
8
0
100
AcDbPolyline
90
4
70
1
43
0.0
10
39.508500000000012
20
-67.870000000000005
10
39.508500000000012
20
-81.869999999999976
10
25.508500000000005
20
-81.869999999999976
10
25.508500000000005
20
-67.870000000000005
0
LWPOLYLINE
5
164
100
AcDbEntity
8
0
100
AcDbPolyline
90
8
70
1
43
0.0
10
97.188500000000019
20
-111.89500000000001
10
103.4885
20
-111.89500000000001
10
103.4885
20
-105.045
10
102.13850000000001
20
-105.045
10
102.13850000000001
20
-100.39500000000001
10
98.538500000000013
20
-100.39500000000001
10
98.538500000000013
20
-105.045
10
97.188500000000033
20
-105.045
0
LWPOLYLINE
5
165
100
AcDbEntity
8
0
100
AcDbPolyline
90
8
70
1
43
0.0
10
173.16299999999995
20
-105.045
10
173.16300000000001
20
-111.89500000000001
10
179.46300000000005
20
-111.89500000000001
10
179.46300000000005
20
-105.045
10
178.113
20
-105.045
10
178.113
20
-100.39500000000001
10
174.51300000000001
20
-100.39500000000001
10
174.51300000000001
20
-105.045
0
LWPOLYLINE
5
166
100
AcDbEntity
8
0
100
AcDbPolyline
90
8
70
1
43
0.0
10
24.104700000000001
20
-94.727500000000035
10
30.404699999999998
20
-94.727500000000035
10
30.404699999999998
20
-87.877500000000026
10
29.054700000000008
20
-87.877500000000026
10
29.054700000000008
20
-83.227500000000006
10
25.45470000000001
20
-83.227500000000006
10
25.45470000000001
20
-87.877500000000026
10
24.104700000000001
20
-87.877500000000026
0
LWPOLYLINE
5
167
100
AcDbEntity
8
0
100
AcDbPolyline
90
8
70
1
43
0.0
10
48.1297
20
-94.752500000000012
10
54.429699999999997
20
-94.752500000000012
10
54.429699999999997
20
-87.902500000000003
10
53.07970000000001
20
-87.902500000000003
10
53.07970000000001
20
-83.252499999999998
10
49.479700000000008
20
-83.252499999999998
10
49.479700000000008
20
-87.902500000000003
10
48.1297
20
-87.902500000000003
0
LWPOLYLINE
5
168
100
AcDbEntity
8
0
100
AcDbPolyline
90
8
70
1
43
0.0
10
17.989700000000006
20
-32.858000000000004
10
17.989699999999999
20
-116.858
42
0.41421356237309731
10
19.989699999999999
20
-118.858
10
274.55797398608644
20
-118.858
42
0.41421356237310542
10
276.55797398608644
20
-116.858
10
276.55797398608644
20
-32.857999999999983
42
0.4142135623730937
10
274.55797398608644
20
-30.857999999999997
10
19.989699999999964
20
-30.858000000000004
42
0.41421356237308826
0
CIRCLE
5
169
100
AcDbEntity
8
0
100
AcDbCircle
10
77.414699999999982
20
-49.870000000000019
30
0
40
1.1000000000000032
210
0
220
0
230
1
0
CIRCLE
5
170
100
AcDbEntity
8
0
100
AcDbCircle
10
239.44600000000005
20
-49.870000000000019
30
0
40
1.0999999999999981
210
0
220
0
230
1
0
CIRCLE
5
171
100
AcDbEntity
8
0
100
AcDbCircle
10
239.44600000000005
20
-83.620000000000005
30
0
40
1.1000000000000041
210
0
220
0
230
1
0
CIRCLE
5
172
100
AcDbEntity
8
0
100
AcDbCircle
10
165.07100000000005
20
-105.75000000000001
30
0
40
1.1000000000000068
210
0
220
0
230
1
0
CIRCLE
5
173
100
AcDbEntity
8
0
100
AcDbCircle
10
111.41500000000001
20
-105.74950000000001
30
0
40
1.0999999999999956
210
0
220
0
230
1
0
CIRCLE
5
174
100
AcDbEntity
8
0
100
AcDbCircle
10
77.414699999999982
20
-84.182500000000005
30
0
40
1.0999999999999979
210
0
220
0
230
1
0
ENDSEC
0
SECTION
2
OBJECTS
0
DICTIONARY
5
C
100
AcDbDictionary
3
ACAD_GROUP
350
D
3
ACAD_MLINESTYLE
350
17
0
DICTIONARY
5
D
100
AcDbDictionary
0
DICTIONARY
5
1A
330
C
100
AcDbDictionary
0
DICTIONARY
5
17
100
AcDbDictionary
0
ENDSEC
0
EOF
